<svg width="34" height="6" viewBox="0 0 34 6" fill="none" xmlns="http://www.w3.org/2000/svg">
<path d="M0 3C0 1.34315 1.34315 0 3 0C4.65685 0 6 1.34315 6 3C6 4.65685 4.65685 6 3 6C1.34315 6 0 4.65685 0 3Z" fill="#FF69B4"/>
<path d="M14 3C14 1.34315 15.3431 0 17 0C18.6569 0 20 1.34315 20 3C20 4.65685 18.6569 6 17 6C15.3431 6 14 4.65685 14 3Z" fill="#DADADA"/>
<path d="M28 3C28 1.34315 29.3431 0 31 0C32.6569 0 34 1.34315 34 3C34 4.65685 32.6569 6 31 6C29.3431 6 28 4.65685 28 3Z" fill="#DADADA"/>
</svg>
